<svg width="10" height="17" viewBox="0 0 10 17" fill="none" xmlns="http://www.w3.org/2000/svg">
<path d="M5.00001 7.55002C4.26015 7.55162 3.53328 7.74453 2.89001 8.11002C3.7958 5.76698 5.29476 3.69945 7.24001 2.11002C7.36176 2.02226 7.46427 1.91051 7.54122 1.78165C7.61817 1.65278 7.66794 1.50954 7.68745 1.36073C7.70697 1.21191 7.69583 1.06068 7.65471 0.916331C7.6136 0.771984 7.54338 0.637579 7.44837 0.521387C7.35337 0.405194 7.23559 0.309673 7.10229 0.240701C6.96899 0.17173 6.82298 0.130769 6.67325 0.120336C6.52353 0.109904 6.37325 0.130222 6.23167 0.180041C6.09009 0.22986 5.96021 0.308125 5.85001 0.41002C1.85001 3.66002 0.0700073 8.16002 0.0700073 10.95C0.0747455 11.9253 0.360152 12.8787 0.892132 13.6962C1.42411 14.5136 2.18018 15.1607 3.07001 15.56C3.67122 15.8524 4.33149 16.0029 5.00001 16C5.57347 16.0279 6.14662 15.939 6.6847 15.7388C7.22278 15.5385 7.71459 15.2311 8.13031 14.8351C8.54602 14.4391 8.87698 13.9628 9.10312 13.435C9.32926 12.9073 9.44586 12.3392 9.44586 11.765C9.44586 11.1909 9.32926 10.6227 9.10312 10.095C8.87698 9.56727 8.54602 9.09097 8.13031 8.69497C7.71459 8.29897 7.22278 7.99153 6.6847 7.79128C6.14662 7.59103 5.57347 7.50215 5.00001 7.53002V7.55002Z" fill="white"/>
</svg>
