<svg width="11" height="17" viewBox="0 0 11 17" fill="none" xmlns="http://www.w3.org/2000/svg">
<path d="M5.85999 7.55007C5.12026 7.55257 4.39361 7.74543 3.74999 8.11007C4.65615 5.76458 6.15905 3.69635 8.10999 2.11007C8.22162 2.01815 8.31404 1.90514 8.38199 1.77749C8.44994 1.64985 8.49208 1.51007 8.50601 1.36614C8.51994 1.22221 8.50538 1.07694 8.46317 0.938637C8.42096 0.800332 8.35192 0.671696 8.25999 0.560072C8.16807 0.448448 8.05506 0.356023 7.92741 0.288074C7.79977 0.220126 7.65999 0.177985 7.51606 0.164056C7.37213 0.150127 7.22686 0.164684 7.08856 0.206896C6.95025 0.249107 6.82162 0.318146 6.70999 0.410071C2.70999 3.66007 0.929993 8.16007 0.929993 10.9501C0.936885 11.9366 1.23086 12.8997 1.77603 13.7219C2.3212 14.5441 3.09397 15.1898 3.99999 15.5801C4.58635 15.8641 5.22848 16.0144 5.87999 16.0201C6.45345 16.0479 7.0266 15.9591 7.56468 15.7588C8.10277 15.5586 8.59458 15.2511 9.01029 14.8551C9.42601 14.4591 9.75697 13.9828 9.9831 13.4551C10.2092 12.9274 10.3258 12.3592 10.3258 11.7851C10.3258 11.2109 10.2092 10.6428 9.9831 10.1151C9.75697 9.58732 9.42601 9.11102 9.01029 8.71502C8.59458 8.31902 8.10277 8.01158 7.56468 7.81133C7.0266 7.61108 6.45345 7.5222 5.87999 7.55007H5.85999Z" fill="white"/>
</svg>
