<svg xmlns="http://www.w3.org/2000/svg" xmlns:xlink="http://www.w3.org/1999/xlink" width="120" zoomAndPan="magnify" viewBox="0 0 90 89.999999" height="120" preserveAspectRatio="xMidYMid meet" version="1.0"><defs><g/><clipPath id="c1e13e13fb"><path d="M 25.296875 36.039062 L 37 36.039062 L 37 51 L 25.296875 51 Z M 25.296875 36.039062 " clip-rule="nonzero"/></clipPath><clipPath id="7f8c5d28fd"><path d="M 25.296875 44 L 30 44 L 30 51 L 25.296875 51 Z M 25.296875 44 " clip-rule="nonzero"/></clipPath></defs><g fill="#005223" fill-opacity="1"><g transform="translate(41.621855, 50.153863)"><g><path d="M 3.515625 0 L 2.421875 -1.703125 L 1.4375 0 L 0.296875 0 L 1.890625 -2.546875 L 0.28125 -5.03125 L 1.4375 -5.03125 L 2.53125 -3.34375 L 3.515625 -5.03125 L 4.65625 -5.03125 L 3.0625 -2.5 L 4.671875 0 Z M 3.515625 0 "/></g></g></g><g clip-path="url(#c1e13e13fb)"><path fill="#005223" d="M 36.449219 47.441406 L 32.992188 42.878906 C 32.929688 42.796875 32.902344 42.703125 32.917969 42.597656 C 32.929688 42.492188 32.980469 42.410156 33.0625 42.347656 C 33.148438 42.28125 33.242188 42.257812 33.347656 42.269531 C 33.453125 42.285156 33.539062 42.332031 33.601562 42.414062 L 33.917969 42.789062 C 33.96875 42.851562 34.023438 42.851562 34.078125 42.789062 L 36.457031 39.65625 C 36.636719 39.425781 36.765625 39.175781 36.847656 38.898438 C 36.925781 38.621094 36.953125 38.335938 36.921875 38.050781 C 36.894531 37.761719 36.8125 37.492188 36.675781 37.234375 C 36.542969 36.980469 36.363281 36.757812 36.140625 36.570312 C 35.910156 36.386719 35.648438 36.25 35.363281 36.171875 C 35.074219 36.089844 34.78125 36.066406 34.488281 36.105469 C 34.191406 36.140625 33.914062 36.234375 33.65625 36.382812 C 33.398438 36.53125 33.179688 36.722656 33 36.960938 L 29.957031 40.933594 C 29.933594 40.964844 29.902344 40.972656 29.863281 40.960938 C 29.828125 40.949219 29.808594 40.921875 29.804688 40.882812 L 29.804688 38.359375 C 29.8125 38.070312 29.761719 37.792969 29.65625 37.523438 C 29.550781 37.253906 29.398438 37.011719 29.199219 36.800781 C 29 36.589844 28.769531 36.421875 28.507812 36.300781 C 28.242188 36.175781 27.964844 36.109375 27.671875 36.089844 C 27.375 36.082031 27.085938 36.132812 26.808594 36.238281 C 26.53125 36.34375 26.285156 36.5 26.074219 36.707031 C 25.859375 36.910156 25.695312 37.148438 25.578125 37.421875 C 25.460938 37.691406 25.402344 37.976562 25.402344 38.269531 L 25.402344 48.71875 C 25.398438 49.007812 25.449219 49.285156 25.554688 49.554688 C 25.660156 49.824219 25.8125 50.066406 26.011719 50.277344 C 26.207031 50.488281 26.441406 50.65625 26.703125 50.777344 C 26.96875 50.902344 27.246094 50.96875 27.539062 50.984375 C 27.835938 50.996094 28.125 50.945312 28.402344 50.839844 C 28.679688 50.734375 28.925781 50.578125 29.136719 50.371094 C 29.351562 50.167969 29.515625 49.929688 29.632812 49.65625 C 29.75 49.386719 29.804688 49.101562 29.804688 48.808594 L 29.804688 45.945312 L 32.976562 50.121094 C 33.160156 50.359375 33.382812 50.554688 33.644531 50.703125 C 33.90625 50.851562 34.191406 50.941406 34.492188 50.976562 C 34.792969 51.007812 35.085938 50.980469 35.375 50.894531 C 35.664062 50.808594 35.925781 50.667969 36.15625 50.472656 C 36.371094 50.285156 36.542969 50.066406 36.671875 49.8125 C 36.804688 49.5625 36.882812 49.296875 36.910156 49.015625 C 36.9375 48.734375 36.910156 48.457031 36.832031 48.183594 C 36.75 47.914062 36.625 47.664062 36.449219 47.441406 Z M 36.449219 47.441406 " fill-opacity="1" fill-rule="nonzero"/></g><g clip-path="url(#7f8c5d28fd)"><path fill="#04b400" d="M 25.402344 47.417969 L 25.402344 48.71875 C 25.398438 49.007812 25.449219 49.285156 25.554688 49.554688 C 25.660156 49.824219 25.8125 50.066406 26.011719 50.277344 C 26.207031 50.488281 26.441406 50.65625 26.703125 50.777344 C 26.96875 50.902344 27.246094 50.96875 27.539062 50.984375 C 27.835938 50.996094 28.125 50.945312 28.402344 50.839844 C 28.679688 50.734375 28.925781 50.578125 29.136719 50.371094 C 29.351562 50.167969 29.515625 49.929688 29.632812 49.65625 C 29.75 49.386719 29.804688 49.101562 29.804688 48.808594 L 29.804688 45.953125 C 29.488281 45.539062 29.078125 45.253906 28.578125 45.097656 C 28.074219 44.941406 27.574219 44.949219 27.074219 45.113281 C 26.574219 45.28125 26.171875 45.574219 25.863281 46 C 25.558594 46.421875 25.402344 46.894531 25.402344 47.417969 Z M 25.402344 47.417969 " fill-opacity="1" fill-rule="nonzero"/></g><g fill="#005223" fill-opacity="1"><g transform="translate(36.834019, 49.247577)"><g><path d="M 0.1875 -1.234375 C 0.1875 -1.492188 0.238281 -1.71875 0.34375 -1.90625 C 0.445312 -2.09375 0.585938 -2.238281 0.765625 -2.34375 C 0.941406 -2.445312 1.140625 -2.5 1.359375 -2.5 C 1.578125 -2.5 1.765625 -2.453125 1.921875 -2.359375 C 2.085938 -2.273438 2.207031 -2.160156 2.28125 -2.015625 L 2.28125 -2.46875 L 2.703125 -2.46875 L 2.703125 0 L 2.28125 0 L 2.28125 -0.453125 C 2.195312 -0.316406 2.070312 -0.195312 1.90625 -0.09375 C 1.75 0 1.566406 0.046875 1.359375 0.046875 C 1.140625 0.046875 0.941406 -0.00390625 0.765625 -0.109375 C 0.585938 -0.222656 0.445312 -0.378906 0.34375 -0.578125 C 0.238281 -0.773438 0.1875 -0.992188 0.1875 -1.234375 Z M 2.28125 -1.234375 C 2.28125 -1.421875 2.242188 -1.582031 2.171875 -1.71875 C 2.097656 -1.863281 1.992188 -1.972656 1.859375 -2.046875 C 1.734375 -2.117188 1.59375 -2.15625 1.4375 -2.15625 C 1.289062 -2.15625 1.15625 -2.117188 1.03125 -2.046875 C 0.90625 -1.972656 0.800781 -1.863281 0.71875 -1.71875 C 0.644531 -1.582031 0.609375 -1.421875 0.609375 -1.234375 C 0.609375 -1.046875 0.644531 -0.882812 0.71875 -0.75 C 0.800781 -0.613281 0.90625 -0.503906 1.03125 -0.421875 C 1.15625 -0.347656 1.289062 -0.3125 1.4375 -0.3125 C 1.59375 -0.3125 1.734375 -0.347656 1.859375 -0.421875 C 1.992188 -0.503906 2.097656 -0.613281 2.171875 -0.75 C 2.242188 -0.882812 2.28125 -1.046875 2.28125 -1.234375 Z M 2.28125 -1.234375 "/></g></g></g><g fill="#005223" fill-opacity="1"><g transform="translate(39.876038, 49.247577)"><g><path d="M 2.46875 -2.46875 L 0.984375 1.15625 L 0.5625 1.15625 L 1.046875 -0.03125 L 0.046875 -2.46875 L 0.515625 -2.46875 L 1.28125 -0.46875 L 2.046875 -2.46875 Z M 2.46875 -2.46875 "/></g></g></g><g fill="#005223" fill-opacity="1"><g transform="translate(45.749998, 49.247577)"><g><path d="M 0.1875 -1.234375 C 0.1875 -1.492188 0.238281 -1.71875 0.34375 -1.90625 C 0.445312 -2.09375 0.585938 -2.238281 0.765625 -2.34375 C 0.953125 -2.445312 1.160156 -2.5 1.390625 -2.5 C 1.691406 -2.5 1.941406 -2.425781 2.140625 -2.28125 C 2.335938 -2.132812 2.46875 -1.929688 2.53125 -1.671875 L 2.09375 -1.671875 C 2.050781 -1.828125 1.96875 -1.945312 1.84375 -2.03125 C 1.726562 -2.113281 1.578125 -2.15625 1.390625 -2.15625 C 1.160156 -2.15625 0.972656 -2.070312 0.828125 -1.90625 C 0.679688 -1.75 0.609375 -1.523438 0.609375 -1.234375 C 0.609375 -0.941406 0.679688 -0.710938 0.828125 -0.546875 C 0.972656 -0.390625 1.160156 -0.3125 1.390625 -0.3125 C 1.578125 -0.3125 1.726562 -0.351562 1.84375 -0.4375 C 1.96875 -0.519531 2.050781 -0.640625 2.09375 -0.796875 L 2.53125 -0.796875 C 2.46875 -0.535156 2.335938 -0.328125 2.140625 -0.171875 C 1.941406 -0.0234375 1.691406 0.046875 1.390625 0.046875 C 1.160156 0.046875 0.953125 -0.00390625 0.765625 -0.109375 C 0.585938 -0.222656 0.445312 -0.375 0.34375 -0.5625 C 0.238281 -0.75 0.1875 -0.972656 0.1875 -1.234375 Z M 0.1875 -1.234375 "/></g></g></g><g fill="#005223" fill-opacity="1"><g transform="translate(48.481515, 49.247577)"><g><path d="M 1.578125 -2.515625 C 1.753906 -2.515625 1.914062 -2.472656 2.0625 -2.390625 C 2.21875 -2.304688 2.335938 -2.1875 2.421875 -2.03125 C 2.515625 -1.875 2.5625 -1.679688 2.5625 -1.453125 L 2.5625 0 L 2.15625 0 L 2.15625 -1.390625 C 2.15625 -1.640625 2.09375 -1.828125 1.96875 -1.953125 C 1.84375 -2.085938 1.675781 -2.15625 1.46875 -2.15625 C 1.25 -2.15625 1.070312 -2.085938 0.9375 -1.953125 C 0.8125 -1.816406 0.75 -1.617188 0.75 -1.359375 L 0.75 0 L 0.34375 0 L 0.34375 -3.328125 L 0.75 -3.328125 L 0.75 -2.109375 C 0.832031 -2.234375 0.945312 -2.332031 1.09375 -2.40625 C 1.238281 -2.476562 1.398438 -2.515625 1.578125 -2.515625 Z M 1.578125 -2.515625 "/></g></g></g><g fill="#005223" fill-opacity="1"><g transform="translate(51.36153, 49.247577)"><g><path d="M 0.1875 -1.234375 C 0.1875 -1.492188 0.238281 -1.71875 0.34375 -1.90625 C 0.445312 -2.09375 0.585938 -2.238281 0.765625 -2.34375 C 0.941406 -2.445312 1.140625 -2.5 1.359375 -2.5 C 1.578125 -2.5 1.765625 -2.453125 1.921875 -2.359375 C 2.085938 -2.273438 2.207031 -2.160156 2.28125 -2.015625 L 2.28125 -2.46875 L 2.703125 -2.46875 L 2.703125 0 L 2.28125 0 L 2.28125 -0.453125 C 2.195312 -0.316406 2.070312 -0.195312 1.90625 -0.09375 C 1.75 0 1.566406 0.046875 1.359375 0.046875 C 1.140625 0.046875 0.941406 -0.00390625 0.765625 -0.109375 C 0.585938 -0.222656 0.445312 -0.378906 0.34375 -0.578125 C 0.238281 -0.773438 0.1875 -0.992188 0.1875 -1.234375 Z M 2.28125 -1.234375 C 2.28125 -1.421875 2.242188 -1.582031 2.171875 -1.71875 C 2.097656 -1.863281 1.992188 -1.972656 1.859375 -2.046875 C 1.734375 -2.117188 1.59375 -2.15625 1.4375 -2.15625 C 1.289062 -2.15625 1.15625 -2.117188 1.03125 -2.046875 C 0.90625 -1.972656 0.800781 -1.863281 0.71875 -1.71875 C 0.644531 -1.582031 0.609375 -1.421875 0.609375 -1.234375 C 0.609375 -1.046875 0.644531 -0.882812 0.71875 -0.75 C 0.800781 -0.613281 0.90625 -0.503906 1.03125 -0.421875 C 1.15625 -0.347656 1.289062 -0.3125 1.4375 -0.3125 C 1.59375 -0.3125 1.734375 -0.347656 1.859375 -0.421875 C 1.992188 -0.503906 2.097656 -0.613281 2.171875 -0.75 C 2.242188 -0.882812 2.28125 -1.046875 2.28125 -1.234375 Z M 2.28125 -1.234375 "/></g></g></g><g fill="#005223" fill-opacity="1"><g transform="translate(54.403548, 49.247577)"><g><path d="M 1.546875 -2.515625 C 1.847656 -2.515625 2.09375 -2.421875 2.28125 -2.234375 C 2.46875 -2.054688 2.5625 -1.796875 2.5625 -1.453125 L 2.5625 0 L 2.15625 0 L 2.15625 -1.390625 C 2.15625 -1.640625 2.09375 -1.828125 1.96875 -1.953125 C 1.84375 -2.085938 1.675781 -2.15625 1.46875 -2.15625 C 1.25 -2.15625 1.070312 -2.085938 0.9375 -1.953125 C 0.8125 -1.816406 0.75 -1.617188 0.75 -1.359375 L 0.75 0 L 0.34375 0 L 0.34375 -2.46875 L 0.75 -2.46875 L 0.75 -2.109375 C 0.832031 -2.234375 0.941406 -2.332031 1.078125 -2.40625 C 1.222656 -2.476562 1.378906 -2.515625 1.546875 -2.515625 Z M 1.546875 -2.515625 "/></g></g></g><g fill="#005223" fill-opacity="1"><g transform="translate(57.283563, 49.247577)"><g><path d="M 1.359375 -2.5 C 1.578125 -2.5 1.765625 -2.453125 1.921875 -2.359375 C 2.085938 -2.273438 2.207031 -2.160156 2.28125 -2.015625 L 2.28125 -2.46875 L 2.703125 -2.46875 L 2.703125 0.046875 C 2.703125 0.273438 2.648438 0.476562 2.546875 0.65625 C 2.453125 0.832031 2.316406 0.96875 2.140625 1.0625 C 1.960938 1.164062 1.753906 1.21875 1.515625 1.21875 C 1.191406 1.21875 0.921875 1.140625 0.703125 0.984375 C 0.484375 0.828125 0.359375 0.617188 0.328125 0.359375 L 0.734375 0.359375 C 0.773438 0.503906 0.863281 0.625 1 0.71875 C 1.144531 0.8125 1.316406 0.859375 1.515625 0.859375 C 1.742188 0.859375 1.925781 0.785156 2.0625 0.640625 C 2.207031 0.503906 2.28125 0.304688 2.28125 0.046875 L 2.28125 -0.46875 C 2.195312 -0.320312 2.078125 -0.195312 1.921875 -0.09375 C 1.765625 0 1.578125 0.046875 1.359375 0.046875 C 1.140625 0.046875 0.941406 -0.00390625 0.765625 -0.109375 C 0.585938 -0.222656 0.445312 -0.378906 0.34375 -0.578125 C 0.238281 -0.773438 0.1875 -0.992188 0.1875 -1.234375 C 0.1875 -1.492188 0.238281 -1.71875 0.34375 -1.90625 C 0.445312 -2.09375 0.585938 -2.238281 0.765625 -2.34375 C 0.941406 -2.445312 1.140625 -2.5 1.359375 -2.5 Z M 2.28125 -1.234375 C 2.28125 -1.421875 2.242188 -1.582031 2.171875 -1.71875 C 2.097656 -1.863281 1.992188 -1.972656 1.859375 -2.046875 C 1.734375 -2.117188 1.59375 -2.15625 1.4375 -2.15625 C 1.289062 -2.15625 1.15625 -2.117188 1.03125 -2.046875 C 0.90625 -1.972656 0.800781 -1.863281 0.71875 -1.71875 C 0.644531 -1.582031 0.609375 -1.421875 0.609375 -1.234375 C 0.609375 -1.046875 0.644531 -0.882812 0.71875 -0.75 C 0.800781 -0.613281 0.90625 -0.503906 1.03125 -0.421875 C 1.15625 -0.347656 1.289062 -0.3125 1.4375 -0.3125 C 1.59375 -0.3125 1.734375 -0.347656 1.859375 -0.421875 C 1.992188 -0.503906 2.097656 -0.613281 2.171875 -0.75 C 2.242188 -0.882812 2.28125 -1.046875 2.28125 -1.234375 Z M 2.28125 -1.234375 "/></g></g></g><g fill="#005223" fill-opacity="1"><g transform="translate(60.32558, 49.247577)"><g><path d="M 2.59375 -1.328125 C 2.59375 -1.242188 2.585938 -1.160156 2.578125 -1.078125 L 0.609375 -1.078125 C 0.628906 -0.835938 0.710938 -0.648438 0.859375 -0.515625 C 1.015625 -0.378906 1.195312 -0.3125 1.40625 -0.3125 C 1.582031 -0.3125 1.726562 -0.347656 1.84375 -0.421875 C 1.96875 -0.503906 2.054688 -0.617188 2.109375 -0.765625 L 2.546875 -0.765625 C 2.484375 -0.523438 2.351562 -0.328125 2.15625 -0.171875 C 1.957031 -0.0234375 1.707031 0.046875 1.40625 0.046875 C 1.175781 0.046875 0.96875 -0.00390625 0.78125 -0.109375 C 0.601562 -0.222656 0.457031 -0.375 0.34375 -0.5625 C 0.238281 -0.757812 0.1875 -0.984375 0.1875 -1.234375 C 0.1875 -1.492188 0.238281 -1.71875 0.34375 -1.90625 C 0.445312 -2.101562 0.585938 -2.25 0.765625 -2.34375 C 0.953125 -2.445312 1.164062 -2.5 1.40625 -2.5 C 1.644531 -2.5 1.851562 -2.445312 2.03125 -2.34375 C 2.207031 -2.25 2.34375 -2.113281 2.4375 -1.9375 C 2.539062 -1.757812 2.59375 -1.554688 2.59375 -1.328125 Z M 2.171875 -1.40625 C 2.171875 -1.5625 2.132812 -1.695312 2.0625 -1.8125 C 2 -1.925781 1.90625 -2.007812 1.78125 -2.0625 C 1.664062 -2.125 1.535156 -2.15625 1.390625 -2.15625 C 1.179688 -2.15625 1.003906 -2.085938 0.859375 -1.953125 C 0.710938 -1.828125 0.628906 -1.644531 0.609375 -1.40625 Z M 2.171875 -1.40625 "/></g></g></g></svg>