<svg xmlns="http://www.w3.org/2000/svg" xmlns:xlink="http://www.w3.org/1999/xlink" width="2500" zoomAndPan="magnify" viewBox="0 0 1874.88 1874.999927" height="2500" preserveAspectRatio="xMidYMid meet" version="1.0"><path fill="#00bf63" d="M 1704.480469 413.460938 L 1708.792969 416.648438 C 1811.363281 473.1875 1858.238281 565.773438 1849.410156 694.417969 C 1838.0625 788.550781 1826.929688 933.925781 1816.023438 1130.542969 C 1807.503906 1219.101562 1798.652344 1282.304688 1789.464844 1320.148438 C 1768.328125 1423.761719 1724.664062 1497.179688 1658.480469 1540.40625 C 1606.367188 1570.054688 1535.105469 1573.269531 1444.695312 1550.042969 C 1415.144531 1543.773438 1351.851562 1523.523438 1254.816406 1489.289062 L 914.25 1362.785156 C 847.4375 1340.667969 789.300781 1325.523438 739.839844 1317.347656 C 693.277344 1309.085938 628.8125 1309.992188 546.449219 1320.070312 C 499.03125 1325.261719 398.429688 1347.304688 244.640625 1386.195312 C 216.71875 1392 190.371094 1395.050781 165.601562 1395.347656 C 101.863281 1395.488281 62.804688 1369.582031 48.417969 1317.628906 C 16.445312 1196.140625 28.617188 1013.695312 84.929688 770.289062 C 126.777344 593.183594 187.449219 470.683594 266.953125 402.792969 C 337.851562 329 515.605469 295.648438 800.210938 302.738281 C 1207.527344 313.109375 1508.976562 349.917969 1704.566406 413.167969 C 1643.730469 369.425781 1481.707031 334.5 1218.496094 308.394531 C 959.25 284.054688 731.90625 279.035156 536.472656 293.335938 C 388.652344 308.667969 290.644531 344.875 242.445312 401.957031 C 144.453125 498.136719 75.898438 672.199219 36.789062 924.148438 C 14.90625 1055.917969 8.398438 1163.625 17.265625 1247.265625 C 22.03125 1313.648438 41.792969 1360.765625 76.554688 1388.609375 C 101.292969 1407.71875 139.8125 1415.273438 192.117188 1411.28125 C 209.289062 1409.988281 231.21875 1406.546875 257.910156 1400.953125 C 402.644531 1364.132812 496.988281 1343.214844 540.953125 1338.191406 C 602.128906 1328.695312 661.519531 1326.648438 719.125 1332.050781 C 738.878906 1330.683594 800.460938 1345.804688 903.882812 1377.414062 L 1249.664062 1505.628906 C 1346.820312 1539.980469 1411.25 1560.523438 1442.960938 1567.253906 C 1535.515625 1591.136719 1610.386719 1587.035156 1667.570312 1554.945312 C 1737.066406 1510.4375 1783.242188 1433.546875 1806.097656 1324.28125 C 1815.539062 1285.464844 1824.539062 1221.378906 1833.101562 1132.03125 C 1843.9375 937.644531 1855.152344 789.886719 1866.746094 688.757812 C 1871.867188 542 1817.78125 450.234375 1704.480469 413.460938 " fill-opacity="1" fill-rule="nonzero"/><path fill="#003d06" d="M 190.546875 347.378906 L 185.855469 349.917969 C 111.507812 390.859375 74.417969 459.75 74.578125 556.589844 C 69.039062 553.734375 74.761719 657.890625 91.75 869.0625 C 72.773438 1113.378906 66.5 1240.125 72.9375 1249.300781 C 78.214844 1340.378906 101.425781 1400.582031 142.574219 1429.90625 C 174.515625 1452.816406 215.542969 1462.667969 265.648438 1459.460938 C 271.054688 1459.679688 287.929688 1457.898438 316.277344 1454.117188 C 424.800781 1432.402344 494.054688 1420.90625 524.046875 1419.625 C 600.066406 1412.363281 674.164062 1410.4375 746.339844 1413.847656 C 764.488281 1411.132812 946.226562 1429.988281 1291.5625 1470.417969 C 1407.445312 1480.617188 1489.753906 1485.867188 1538.484375 1486.167969 C 1639.8125 1487.714844 1712.074219 1476.675781 1755.277344 1453.050781 C 1801.480469 1436.300781 1825.359375 1389.042969 1826.90625 1311.28125 C 1832.011719 1318.058594 1820.628906 1243.976562 1792.757812 1089.035156 C 1788.242188 1057.871094 1785.65625 1026.679688 1785 995.453125 L 1814.777344 658.105469 C 1818.429688 601.121094 1818.609375 551.664062 1815.3125 509.734375 C 1813.007812 443.207031 1789.6875 392.703125 1745.34375 358.210938 C 1714.367188 340.847656 1679.554688 333.851562 1640.90625 337.230469 C 1627.085938 337.800781 1608.007812 339.933594 1583.667969 343.632812 C 1446.3125 367.753906 1370.097656 380.171875 1355.019531 380.878906 C 1305.941406 386.292969 1263.234375 388.695312 1226.898438 388.082031 C 1165.792969 387.742188 1104.746094 384.359375 1043.753906 377.9375 C 805.152344 345.304688 617.136719 325.21875 479.703125 317.6875 C 339.898438 312.808594 243.511719 322.707031 190.546875 347.378906 " fill-opacity="1" fill-rule="nonzero"/><path fill="#00bf63" d="M 766.566406 285.394531 L 757.582031 285.40625 C 728.453125 285.53125 704.933594 285.824219 687.015625 286.277344 L 687.894531 302.121094 C 718.5625 301.628906 750.496094 301.710938 783.703125 302.371094 L 932.0625 307.175781 L 1056.070312 313.570312 L 1172.238281 321.921875 L 1280.566406 332.234375 L 1381.046875 344.503906 L 1428.046875 351.722656 L 1408.9375 331.378906 C 1344.832031 322.09375 1278.824219 314.164062 1210.921875 307.59375 C 1187.363281 305.246094 1136.859375 301.253906 1059.410156 295.617188 C 1036.46875 294.105469 1013.804688 292.757812 991.417969 291.578125 C 946.644531 289.222656 902.980469 287.542969 860.429688 286.53125 C 849.445312 286.070312 818.15625 285.691406 766.566406 285.394531 Z M 766.566406 285.394531 " fill-opacity="1" fill-rule="nonzero"/><path fill="#00bf63" d="M 61.839844 879.515625 L 44 880.46875 C 19.984375 1001.980469 10.359375 1123.703125 15.125 1245.636719 C 22.847656 1318.828125 47.65625 1369.542969 89.546875 1397.777344 C 107.832031 1408.550781 142.019531 1413.054688 192.117188 1411.28125 L 257.910156 1400.953125 C 400.628906 1364.699219 494.652344 1343.734375 539.980469 1338.046875 C 597.304688 1328.570312 660.859375 1326.730469 730.644531 1332.527344 C 745.566406 1332.339844 803.308594 1347.304688 903.882812 1377.414062 C 1102.453125 1453.863281 1268.847656 1513.738281 1403.066406 1557.035156 C 1465.765625 1575.269531 1522.222656 1583.476562 1572.429688 1581.65625 C 1598.234375 1581.992188 1626.773438 1574.980469 1658.050781 1560.621094 L 1680.222656 1546.296875 L 1679.792969 1524.824219 C 1627.265625 1565.125 1556.800781 1575.464844 1468.398438 1555.847656 C 1422.800781 1545.445312 1370.109375 1529.738281 1310.324219 1508.71875 L 892.300781 1355.671875 C 825.402344 1334.96875 771.972656 1321.757812 732.007812 1316.039062 C 678.949219 1310.007812 621.835938 1310.753906 560.664062 1318.285156 C 550.675781 1318.382812 518.011719 1323.804688 462.667969 1334.558594 L 208.34375 1392.300781 C 155.46875 1396.382812 123.71875 1395.085938 113.097656 1388.40625 C 72.648438 1376.574219 47.742188 1336.980469 38.378906 1269.628906 C 31.585938 1261.675781 31.265625 1194.488281 37.417969 1068.0625 C 42.21875 1012.4375 50.359375 949.585938 61.839844 879.515625 Z M 61.839844 879.515625 " fill-opacity="1" fill-rule="nonzero"/><path fill="#00bf63" d="M 1851.734375 557.074219 L 1849.824219 557.796875 L 1834.941406 562.980469 C 1840.4375 578.140625 1844.597656 596.074219 1847.425781 616.785156 C 1850.019531 638.039062 1850.980469 657.652344 1850.3125 675.621094 L 1849.410156 694.417969 C 1842.695312 757.804688 1837.554688 812.074219 1833.992188 857.230469 C 1827.253906 942.210938 1822.058594 1018.4375 1818.414062 1085.90625 L 1835.675781 1084.402344 C 1836.75 1062.746094 1838.371094 1035.722656 1840.539062 1003.324219 C 1841.855469 982.046875 1845.414062 933.160156 1851.214844 856.660156 C 1857.089844 786.164062 1862.265625 730.195312 1866.746094 688.757812 L 1866.199219 672.253906 C 1865.804688 661.625 1865.355469 651.742188 1864.847656 642.605469 C 1863.832031 624.332031 1862.589844 609.039062 1861.117188 596.730469 C 1859.316406 579.726562 1856.1875 566.507812 1851.734375 557.074219 Z M 1851.734375 557.074219 " fill-opacity="1" fill-rule="nonzero"/><path fill="#00bf63" d="M 39.003906 530.59375 L 39.125 530.277344 C 40.179688 526.726562 41.207031 522.402344 42.210938 517.296875 L 51.558594 468.710938 C 53.609375 459.410156 55.902344 450.667969 58.4375 442.488281 C 66.519531 418.75 74.9375 401.804688 83.695312 391.652344 C 92.359375 378.984375 107.085938 365.085938 127.875 349.957031 C 135.894531 344.335938 143.902344 339.109375 151.90625 334.285156 C 189.945312 312.507812 210.878906 300.21875 214.707031 297.429688 C 184.816406 306.238281 154.554688 319.285156 123.917969 336.558594 C 99.121094 351.761719 81.695312 366.328125 71.648438 380.257812 C 59.992188 395.746094 51.203125 416.078125 45.28125 441.257812 C 41.921875 456.1875 39.699219 472.28125 38.613281 489.53125 C 37.28125 513.851562 37.414062 527.535156 39.003906 530.59375 " fill-opacity="1" fill-rule="nonzero"/><path fill="#00bf63" d="M 37.605469 415.585938 L 37.664062 415.46875 C 37.820312 415.578125 40.457031 407.757812 45.578125 392.011719 C 46.851562 388.378906 48.027344 385.339844 49.109375 382.902344 C 51.648438 376.875 54.859375 371.3125 58.742188 366.21875 C 64.703125 358.667969 70.246094 353.023438 75.375 349.277344 C 78.859375 346.148438 91.011719 338.105469 111.839844 325.148438 C 98.234375 329.222656 86.9375 333.578125 77.953125 338.222656 C 68.597656 342.894531 60.589844 348.675781 53.925781 355.5625 C 48.660156 362.105469 44.53125 370.5625 41.53125 380.925781 C 39.917969 386.566406 38.695312 393.042969 37.859375 400.347656 C 36.832031 410.792969 36.75 415.875 37.605469 415.585938 " fill-opacity="1" fill-rule="nonzero"/><path fill="#00bf63" d="M 533.566406 1459.410156 L 533.765625 1459.449219 C 537.761719 1459.980469 545.605469 1460.214844 557.292969 1460.152344 C 564.304688 1460.0625 571.058594 1459.9375 577.550781 1459.773438 L 619.398438 1458.632812 C 631.003906 1458.371094 640.8125 1458.207031 648.828125 1458.140625 C 661.105469 1458.058594 673.453125 1458.152344 685.871094 1458.414062 C 698.871094 1458.292969 707.640625 1458.289062 712.1875 1458.402344 C 723.207031 1458.515625 736.984375 1458.9375 753.519531 1459.664062 C 759.789062 1459.914062 775.042969 1460.71875 799.289062 1462.078125 C 804.335938 1462.335938 809.308594 1462.5625 814.214844 1462.757812 C 817.9375 1462.882812 822.023438 1462.96875 826.472656 1463.003906 L 838.738281 1462.839844 C 839.363281 1462.820312 840.238281 1462.890625 841.367188 1463.050781 C 840.511719 1462.972656 839.1875 1462.71875 837.402344 1462.28125 C 830.96875 1460.46875 825.378906 1459.050781 820.632812 1458.027344 C 818.59375 1457.511719 813.699219 1456.523438 805.949219 1455.054688 C 762.96875 1447.234375 722.792969 1442.859375 685.421875 1441.933594 C 659.238281 1442.410156 632.023438 1444.261719 603.785156 1447.484375 C 586.453125 1449.445312 570.582031 1451.621094 556.171875 1454.007812 C 541.613281 1456.46875 534.078125 1458.269531 533.566406 1459.410156 " fill-opacity="1" fill-rule="nonzero"/><path fill="#fefefe" d="M 1540.820312 389.699219 L 1540.945312 389.722656 C 1543.953125 390.070312 1548.988281 390.285156 1556.046875 390.367188 C 1591.277344 389.765625 1614.71875 389.664062 1626.371094 390.066406 C 1644.015625 390.785156 1656.355469 391.757812 1663.394531 392.984375 C 1692.484375 397.703125 1712.632812 405.761719 1723.835938 417.160156 C 1729.339844 422.070312 1734.601562 429.175781 1739.628906 438.472656 C 1746.707031 452.988281 1751.335938 465.703125 1753.515625 476.609375 C 1755.863281 486.199219 1758.023438 498.203125 1759.992188 512.628906 L 1769.914062 604.121094 C 1775.207031 555.714844 1774.753906 512.523438 1768.558594 474.546875 C 1766.15625 460.015625 1761.613281 445.484375 1754.921875 430.945312 C 1749.171875 420.015625 1742.695312 411.238281 1735.492188 404.609375 C 1726.398438 396.582031 1716.914062 390.714844 1707.03125 387.003906 C 1695.375 382.347656 1680.792969 379.269531 1663.292969 377.769531 C 1648.757812 376.289062 1628.007812 376.777344 1601.039062 379.230469 C 1568.777344 382.796875 1548.703125 386.285156 1540.820312 389.699219 " fill-opacity="1" fill-rule="nonzero"/><path fill="#fefefe" d="M 1769.90625 893.027344 L 1769.757812 893.292969 C 1761.75 912.308594 1754.5625 937.089844 1748.195312 967.636719 C 1745.695312 980.453125 1744.035156 991.425781 1743.214844 1000.546875 C 1742.566406 1006.394531 1742.109375 1013.109375 1741.84375 1020.695312 C 1741.726562 1021.339844 1741.707031 1026.277344 1741.78125 1035.5 C 1743.488281 1059.214844 1747.875 1083.003906 1754.933594 1106.859375 C 1762.898438 1134.679688 1772.3125 1160.089844 1783.179688 1183.089844 C 1782.878906 1182.234375 1782.550781 1180.851562 1782.195312 1178.945312 C 1781.183594 1172.097656 1779.90625 1165.070312 1778.363281 1157.863281 C 1770.660156 1123.726562 1766.914062 1106.738281 1767.121094 1106.894531 C 1765.382812 1098.292969 1763.96875 1090.605469 1762.875 1083.824219 C 1759.945312 1066.011719 1758.246094 1048.941406 1757.777344 1032.613281 C 1756.867188 1018.773438 1757.136719 1002.957031 1758.574219 985.164062 C 1758.871094 979.96875 1760.09375 969.273438 1762.238281 953.082031 C 1762.773438 948.996094 1764.558594 937.359375 1767.59375 918.164062 L 1769.609375 903.9375 C 1770.050781 900.039062 1770.277344 897.238281 1770.292969 895.53125 C 1770.320312 895.234375 1770.296875 894.800781 1770.222656 894.230469 C 1769.863281 893.464844 1769.757812 893.066406 1769.90625 893.027344 " fill-opacity="1" fill-rule="nonzero"/></svg>